<svg width="24" height="24" viewBox="0 0 24 24" fill="none" xmlns="http://www.w3.org/2000/svg">
<g clip-path="url(#clip0_2068_3942)">
<path d="M12 0C18.6274 0 24 5.37258 24 12C24 17.9459 19.6753 22.8797 14 23.832V16H17L18 12H14V9C14 8.73478 14.1054 8.48051 14.293 8.29297C14.4805 8.10543 14.7348 8 15 8H18V4H15C13.6739 4 12.4025 4.52716 11.4648 5.46484C10.5272 6.40253 10 7.67392 10 9V12H7V16H10V23.832C4.32474 22.8797 0 17.9459 0 12C0 5.37258 5.37258 0 12 0Z" fill="#262626"/>
</g>
<defs>
<clipPath id="clip0_2068_3942">
<rect width="24" height="24" rx="12" fill="white"/>
</clipPath>
</defs>
</svg>
