<?xml version="1.0" encoding="UTF-8"?>
<svg id="_喇뒨쏛_2" data-name="喇뒨쏛 2" xmlns="http://www.w3.org/2000/svg" viewBox="0 0 201.05 250.39">
  <defs>
    <style>
      .cls-1 {
        fill: #e0782e;
      }

      .cls-2 {
        fill: #3594c2;
      }

      .cls-3 {
        fill: #11538d;
      }

      .cls-4 {
        fill: #d63b2d;
      }

      .cls-5 {
        fill: #7aae47;
      }

      .cls-6 {
        fill: #1c9888;
      }
    </style>
  </defs>
  <g id="_喇뒨쏛_1-2" data-name="喇뒨쏛 1">
    <g>
      <path class="cls-3" d="M33.78,102.21c7.78,8.49,15.55,16.99,23.33,25.48,10.73-7.69,24.48-8.35,34.37-1.81,7.79,5.15,14.32,15.5,12.22,26.25-.33,1.69-2.39,11.14-11.44,15.62-7.08,3.5-13.88,1.72-15.63,1.2,1.36.03,7.27,0,12.33-4.51,5.22-4.66,5.79-10.76,5.91-12.33.56-7.28-3.35-12.4-4.61-13.91-.23-.28-5.56-6.45-13.63-7.12-11.46-.95-23.25,9.61-25.77,21.03-3.92,17.74,15.01,35.33,29.59,36.74,1.1.11,1.97.1,2.81.09,14.59-.1,25.07-9.24,27.97-11.98,1.68-1.59,10.81-10.47,13.24-24.86,3.48-20.58-8.91-41.92-26.03-52.61-19.12-11.94-44.57-10.85-64.66,2.71Z"/>
      <path class="cls-2" d="M27.3,107.1c-4.77,3.98-21.64,19.02-26.19,45-5.3,30.22,9.99,52.71,13.01,56.97,10.96-10.69,21.93-21.38,32.89-32.06-1.59-2.64-6.97-12.27-4.89-24.9,1.6-9.74,6.78-16.12,9.09-18.65-7.97-8.78-15.94-17.57-23.91-26.35Z"/>
      <path class="cls-6" d="M106,192.62c-3.4,1.71-18.3,8.71-35.47,3.05-9.24-3.04-15.32-8.49-18.47-11.8-10.96,10.77-21.93,21.54-32.89,32.31,4.72,6.21,13.82,16.51,28.49,24.26,18.12,9.57,34.59,9.89,42.51,9.95,25.34.19,44.46-9.35,53.66-14.81-12.61-14.32-25.22-28.64-37.83-42.97Z"/>
      <path class="cls-5" d="M199.6,157.31h-66.18c-1.05,3.95-2.9,9.15-6.26,14.67-4.86,7.97-10.72,13.07-14.68,15.98,13.34,14.09,26.69,28.19,40.03,42.28,8.34-5.54,22.82-16.8,33.95-36.04,8.35-14.43,11.68-27.94,13.13-36.89Z"/>
      <path class="cls-1" d="M200.68,149.1c.83-11.3.76-29.1-5.3-49.7-5.61-19.07-14.21-33.22-20.6-42.11-17.67,17.58-35.35,35.15-53.02,52.73,3.04,4.33,7.03,11.09,9.61,20.1,2.16,7.54,2.62,14.17,2.58,18.98h66.74Z"/>
      <path class="cls-4" d="M169.75,49.93c-7.25-8.63-18.17-19.55-33.56-29.05C108.21,3.61,80.88.54,66.64,0c3.33,27.35,6.66,54.7,9.99,82.04,5.31,1.17,12.1,3.21,19.45,6.92,9.31,4.69,16.09,10.32,20.56,14.68,17.7-17.9,35.4-35.8,53.11-53.7Z"/>
    </g>
  </g>
</svg>