<svg width="24" height="24" viewBox="0 0 24 24" fill="none" xmlns="http://www.w3.org/2000/svg">
<path d="M17 2C19.7614 2 22 4.23858 22 7V17C22 19.7614 19.7614 22 17 22H7C4.23858 22 2 19.7614 2 17V7C2 4.23858 4.23858 2 7 2H17ZM12.7764 7.01074C11.7362 6.85651 10.6737 7.03429 9.74023 7.51855C8.80681 8.00289 8.04998 8.76969 7.57715 9.70898C7.10438 10.6483 6.93947 11.7128 7.10645 12.751C7.27353 13.7893 7.76416 14.7485 8.50781 15.4922C9.25146 16.2358 10.2107 16.7265 11.249 16.8936C12.2872 17.0605 13.3517 16.8956 14.291 16.4229C15.2303 15.95 15.9971 15.1932 16.4814 14.2598C16.9657 13.3263 17.1435 12.2638 16.9893 11.2236C16.8319 10.1625 16.3367 9.18043 15.5781 8.42188C14.8196 7.66332 13.8375 7.1681 12.7764 7.01074ZM10.6611 9.29395C11.2212 9.00332 11.8592 8.8967 12.4834 8.98926C13.12 9.08373 13.709 9.38089 14.1641 9.83594C14.6191 10.291 14.9163 10.88 15.0107 11.5166C15.1033 12.1408 14.9967 12.7788 14.7061 13.3389C14.4154 13.899 13.9552 14.353 13.3916 14.6367C12.828 14.9204 12.1893 15.0192 11.5664 14.9189C10.9434 14.8187 10.3681 14.5243 9.92188 14.0781C9.47569 13.6319 9.1813 13.0566 9.08105 12.4336C8.98083 11.8107 9.07963 11.172 9.36328 10.6084C9.64698 10.0448 10.101 9.58457 10.6611 9.29395ZM17.5 5.5C16.9477 5.5 16.5 5.94772 16.5 6.5C16.5 7.05228 16.9477 7.5 17.5 7.5H17.5098C18.0621 7.5 18.5098 7.05228 18.5098 6.5C18.5098 5.94772 18.0621 5.5 17.5098 5.5H17.5Z" fill="#262626"/>
</svg>
