<?xml version="1.0" encoding="UTF-8"?>
<svg id="_圖層_1" data-name="圖層_1" xmlns="http://www.w3.org/2000/svg" version="1.1" viewBox="0 0 22 22">
  <!-- Generator: Adobe Illustrator 30.0.0, SVG Export Plug-In . SVG Version: 2.1.1 Build 123)  -->
  <defs>
    <style>
      .st0 {
        fill: #78d2c8;
      }
    </style>
  </defs>
  <path class="st0" d="M12.59,20c2.4-2.11,6.66-6.42,6.66-10.37,0-2.19-.87-4.29-2.42-5.83-1.55-1.55-3.65-2.42-5.83-2.42s-4.29.87-5.83,2.42c-1.55,1.55-2.42,3.65-2.42,5.83,0,3.95,4.26,8.26,6.66,10.37.44.39,1,.61,1.59.61s1.15-.22,1.59-.61ZM8.25,9.62c0-.73.29-1.43.81-1.94.52-.52,1.22-.81,1.94-.81s1.43.29,1.94.81c.52.52.81,1.22.81,1.94s-.29,1.43-.81,1.94c-.52.52-1.22.81-1.94.81s-1.43-.29-1.94-.81c-.52-.52-.81-1.22-.81-1.94Z"/>
</svg>