<?xml version="1.0" encoding="UTF-8"?>
<svg id="_圖層_2" data-name="圖層 2" xmlns="http://www.w3.org/2000/svg" viewBox="0 0 392.67 115.38">
  <defs>
    <style>
      .cls-1 {
        fill: #e0782e;
      }

      .cls-2 {
        fill: #3594c2;
      }

      .cls-3 {
        fill: #11538d;
      }

      .cls-4 {
        fill: #d63b2d;
      }

      .cls-5 {
        fill: #373737;
      }

      .cls-6 {
        fill: #7aae47;
      }

      .cls-7 {
        fill: #1c9888;
      }
    </style>
  </defs>
  <g id="_圖層_1-2" data-name="圖層 1">
    <g>
      <path class="cls-3" d="M15.57,47.1c3.58,3.91,7.17,7.83,10.75,11.74,4.94-3.54,11.28-3.85,15.84-.83,3.59,2.37,6.6,7.14,5.63,12.1-.15.78-1.1,5.13-5.27,7.2-3.26,1.61-6.4.79-7.2.55.63.01,3.35,0,5.68-2.08,2.41-2.15,2.67-4.96,2.72-5.68.26-3.36-1.54-5.72-2.12-6.41-.11-.13-2.56-2.97-6.28-3.28-5.28-.44-10.71,4.43-11.88,9.69-1.81,8.18,6.92,16.28,13.63,16.93.51.05.91.05,1.29.04,6.72-.05,11.55-4.26,12.89-5.52.77-.73,4.98-4.83,6.1-11.45,1.6-9.48-4.11-19.32-11.99-24.24-8.81-5.5-20.54-5-29.8,1.25Z"/>
      <path class="cls-2" d="M12.58,49.35c-2.2,1.83-9.97,8.76-12.07,20.74-2.44,13.92,4.6,24.29,6,26.25,5.05-4.93,10.11-9.85,15.16-14.78-.73-1.22-3.21-5.65-2.25-11.48.74-4.49,3.13-7.43,4.19-8.59-3.67-4.05-7.34-8.09-11.02-12.14Z"/>
      <path class="cls-7" d="M48.84,88.76c-1.57.79-8.43,4.01-16.35,1.41-4.26-1.4-7.06-3.91-8.51-5.44-5.05,4.96-10.1,9.93-15.16,14.89,2.17,2.86,6.37,7.61,13.13,11.18,8.35,4.41,15.94,4.56,19.59,4.58,11.68.09,20.49-4.31,24.73-6.82-5.81-6.6-11.62-13.2-17.43-19.8Z"/>
      <path class="cls-6" d="M91.98,72.49h-30.5c-.48,1.82-1.33,4.22-2.88,6.76-2.24,3.67-4.94,6.02-6.76,7.36,6.15,6.49,12.3,12.99,18.45,19.48,3.84-2.55,10.52-7.74,15.65-16.61,3.85-6.65,5.38-12.87,6.05-17Z"/>
      <path class="cls-1" d="M92.47,68.71c.38-5.21.35-13.41-2.44-22.9-2.59-8.79-6.55-15.31-9.49-19.41-8.14,8.1-16.29,16.2-24.43,24.3,1.4,1.99,3.24,5.11,4.43,9.26.99,3.47,1.21,6.53,1.19,8.75h30.76Z"/>
      <path class="cls-4" d="M78.22,23.01c-3.34-3.98-8.37-9.01-15.47-13.39C49.86,1.66,37.27.25,30.71,0c1.53,12.6,3.07,25.2,4.6,37.81,2.45.54,5.57,1.48,8.96,3.19,4.29,2.16,7.41,4.75,9.48,6.76,8.16-8.25,16.31-16.5,24.47-24.75Z"/>
    </g>
    <g>
      <path class="cls-5" d="M104.26,58.03v-24.8h13.31v24.78c-4.44,0-8.87.01-13.31.02ZM107.46,36.47v18.29h6.77v-18.29h-6.77ZM128.52,62.66c-2.87,3.48-7.38,6.72-11.33,8.79-.56-.71-1.93-2.12-2.77-2.73,3.95-1.74,8.13-4.47,10.58-7.29l3.53,1.22ZM142.91,60.59h-21.72v-29.76h21.72v29.76ZM139.43,33.93h-14.86v5.78h14.86v-5.78ZM139.43,42.72h-14.86v5.83h14.86v-5.83ZM139.43,51.56h-14.86v5.88h14.86v-5.88ZM137.5,61.3c3.1,2.3,6.82,5.6,8.6,7.95l-2.87,2.12c-1.69-2.3-5.36-5.78-8.42-8.18l2.68-1.88Z"/>
      <path class="cls-5" d="M158.99,50.91c-1.03,5.13-3.2,11.61-5.78,14.95-.33-1.13-1.18-2.68-1.69-3.67,2.07-2.73,4.23-7.95,5.13-12.13l2.35.85ZM162.98,47.33v23.98h-3.29v-23.98h-7.29v-3.29h7.29v-15.66h3.29v15.66h6.39v1.6c1.19-1.61,2.57-3.78,3.72-6.52,1.52-3.63,2.09-6.91,2.31-9.27.96,1.09,1.91,2.17,2.87,3.26-.4,2.19-1.13,5-2.5,8.08-1.43,3.21-3.11,5.71-4.51,7.51-.33-.47-1.18-1.22-1.88-1.83v.47h-6.39ZM155.27,42.35c-.24-2.77-1.27-7.1-2.54-10.39l2.54-.61c1.36,3.24,2.45,7.57,2.77,10.3l-2.77.71ZM165.43,50.11c.94,1.27,4.18,7.29,4.94,8.75l-2.4,2.54c-.89-2.35-3.43-8.13-4.37-9.97l1.83-1.32ZM170.65,32c-1.22,3.48-2.68,7.85-3.95,10.49l-2.35-.75c1.13-2.73,2.49-7.38,3.2-10.53l3.1.8ZM188.33,29.89c1.03,6.91,3.57,13.31,7.1,16.55-.8.56-2.07,1.79-2.68,2.63-.33-.33-.66-.71-.94-1.08,0,.33,0,.8-.05,1.08-.66,13.73-1.32,18.57-2.68,20.22-.8,1.03-1.6,1.36-2.91,1.46-1.13.14-3.15.14-5.22,0-.05-.94-.38-2.26-.89-3.15,2.02.19,3.81.24,4.61.24.75,0,1.08-.09,1.5-.61.94-1.03,1.65-5.27,2.12-16.46h-7.48c-1.03,9.64-3.62,16.32-9.64,20.69-.38-.66-1.6-1.97-2.26-2.49,5.45-3.67,7.76-9.73,8.56-18.2h-5.12v-3.24h19.09c-2.68-3.62-4.7-8.79-5.74-14.43-2.47,0-4.95.02-7.42.03-.96-1.09-1.91-2.17-2.87-3.26,4.31.01,8.61.02,12.92.03Z"/>
      <path class="cls-5" d="M220.21,50.81c-1.36-1.18-4.84-3.67-7.19-5.27-1.6,2.68-4.42,5.31-9.36,7.57-.42-.75-1.41-1.88-2.21-2.4,5.97-2.35,8.46-5.45,9.45-8.32h-9.03v-2.87h9.64c.09-.61.09-1.13.09-1.69v-2.73h-3.95c-.89,1.6-1.93,3.06-2.96,4.18-.66-.47-2.02-1.32-2.82-1.69,2.4-2.3,4.23-5.83,5.31-9.36l3.15.61c-.33,1.18-.8,2.3-1.27,3.43h12.79v2.82h-6.91v2.73c0,.56,0,1.08-.09,1.69h8.18v2.87h-8.7c-.05.28-.14.52-.24.8,1.83.99,7.24,4.28,8.56,5.22l-2.44,2.4ZM212.17,55.86v4.61h21.72v-4.61h-21.72ZM208.7,52.95h28.68v18.3c-9.56,0-19.12-.01-28.68-.02v-18.28ZM233.89,68.54v-4.85h-21.72v4.85h21.72ZM241.36,32.14v16.32h-16.41v-16.32h16.41ZM237.93,35.3h-9.69v9.97h9.69v-9.97Z"/>
      <path class="cls-5" d="M270.37,67.5c0,1.79-.38,2.59-1.65,3.1-1.18.52-3.24.56-6.16.56-.19-.89-.66-2.07-1.13-2.91,2.26.09,4.18.05,4.8.05.66,0,.8-.19.8-.8v-7.24c-3.1,1.83-6.3,3.67-8.93,5.17l-1.22-2.82c-.47,3.1-1.41,6.35-3.39,8.79-.47-.75-1.69-1.97-2.4-2.44,2.68-3.57,2.96-8.51,2.96-12.51v-11.47h16.32v22.52ZM267.36,31.77c2.3,3.2,4.98,7.62,6.16,10.39l-3.01,1.36c-.38-.94-.89-2.02-1.5-3.2-12.74,1.03-14.39,1.22-15.47,1.74-.19-.71-.71-2.44-1.13-3.29.75-.14,1.55-.85,2.49-1.83.89-.99,4-4.8,5.97-8.6l3.48,1.18c-1.97,3.06-4.23,6.21-6.54,8.65l9.64-.66c-.94-1.6-1.93-3.2-2.92-4.65l2.82-1.08ZM257.3,56.5c0,1.79-.09,3.86-.38,5.92,2.63-1.18,6.35-3.06,10.11-4.94v-9.5h-9.73v8.51ZM259.51,50.67c1.3.76,2.65,1.59,4.04,2.5,1.51,1,2.93,1.99,4.24,2.97-.89.45-1.79.9-2.68,1.35-1.65-1.36-4.89-3.53-7.43-5.08l1.83-1.74ZM279.92,48.6c-4.14,0-5.27-1.46-5.27-5.41v-14.81h3.43v6.49h12.65v3.1h-12.65v5.31c0,1.69.38,2.26,1.88,2.26h8.65c1.13,0,3.01-.05,3.9-.28.09.94.24,2.26.38,3.06-.8.19-2.49.28-4.18.28h-8.79ZM288.43,67.79c1.97,0,2.3-.89,2.54-5.92.8.56,2.16,1.08,3.1,1.32-.42,6.11-1.46,7.71-5.36,7.71h-8.32c-4.56,0-5.74-1.08-5.74-4.94v-15.8h3.43v5.6h13.17v3.15h-13.17v7.05c0,1.55.42,1.83,2.63,1.83h7.71Z"/>
      <path class="cls-5" d="M316.03,56.45c-.8-1.55-2.77-4.61-4.37-7.01v21.77h-3.43v-20.78c-1.93,4.7-4.37,9.36-6.82,12.27-.33-.94-1.18-2.35-1.74-3.15,2.96-3.34,6.25-9.36,8.09-14.76h-7.43v-3.29h7.9v-7.1c-2.16.42-4.37.8-6.44,1.08-.19-.75-.66-1.97-1.03-2.73,5.27-.85,11.43-2.21,14.95-3.76l2.12,2.77c-1.74.71-3.9,1.36-6.16,1.88v7.85h6.91v3.29h-6.91v.85c1.46,1.65,5.5,6.82,6.49,8.09l-2.12,2.73ZM337.28,58.95v12.27h-3.43v-11.71l-15.33,2.54-.56-3.34,15.89-2.54v-27.84h3.43v27.27l5.5-.85.52,3.2-6.02.99ZM328.21,52.69c-1.69-2.07-5.31-4.98-8.28-6.86l2.16-2.07c3.01,1.83,6.68,4.61,8.42,6.63l-2.3,2.3ZM329.24,40.28c-1.46-1.97-4.7-4.75-7.48-6.68l2.21-2.02c2.82,1.79,6.11,4.47,7.66,6.44l-2.4,2.26Z"/>
      <path class="cls-5" d="M365.07,52.08c-1.88.56-3.81,1.13-5.64,1.69v13.31c0,1.97-.52,2.91-1.74,3.48-1.18.56-3.15.66-6.35.61-.14-.89-.66-2.26-1.13-3.2,2.26.05,4.28.05,4.84,0,.71,0,.94-.24.94-.89v-12.27l-5.64,1.65-.99-3.43c1.88-.42,4.14-.99,6.63-1.69v-10.25h-6.02v-3.29h6.02v-9.4h3.43v9.4h5.22v3.29h-5.22v9.31c1.69-.47,3.48-.99,5.22-1.5l.42,3.2ZM386.15,55.5c-1.89,3-3.94,5.23-5.62,6.78,3.39,2.77,7.43,4.8,12.13,6.07-.75.71-1.74,2.07-2.26,3.01-4.89-1.5-9.07-3.76-12.55-6.82-4,3.06-8.56,5.22-13.35,6.72-.38-.94-1.22-2.4-1.88-3.15,4.56-1.22,8.93-3.2,12.74-5.97-1.42-1.6-2.94-3.55-4.4-5.88-2.38-3.8-3.82-7.41-4.72-10.3h10.06v-7.01h-11v-3.24h11v-7.38h3.43v7.38h11.24v3.24h-11.24v7.01c3.51,0,7.02,0,10.53,0-.64,2.47-1.82,5.89-4.11,9.53ZM371.09,49.21c1.6,4.09,3.95,7.81,6.91,10.81,3.24-2.92,5.88-6.54,7.57-10.81h-14.48Z"/>
      <g>
        <path class="cls-5" d="M103.61,97.27l1.01-1.16c.98,1.01,2.34,1.68,3.74,1.68,1.77,0,2.83-.88,2.83-2.21s-.98-1.82-2.25-2.39l-1.95-.85c-1.25-.53-2.74-1.49-2.74-3.46,0-2.08,1.8-3.59,4.25-3.59,1.6,0,3.02.68,3.98,1.68l-.9,1.09c-.83-.77-1.82-1.27-3.07-1.27-1.53,0-2.52.77-2.52,1.99,0,1.31,1.18,1.8,2.23,2.25l1.93.83c1.56.68,2.78,1.6,2.78,3.61,0,2.14-1.77,3.83-4.58,3.83-1.91,0-3.55-.77-4.73-2.01Z"/>
        <path class="cls-5" d="M115.71,84.39h1.68v4.01l-.06,2.06c.92-.92,1.95-1.68,3.31-1.68,2.1,0,3.06,1.36,3.06,3.92v6.33h-1.68v-6.11c0-1.88-.57-2.67-1.9-2.67-1.03,0-1.73.52-2.74,1.53v7.25h-1.68v-14.65Z"/>
        <path class="cls-5" d="M126.4,94.05c0-3.24,2.19-5.27,4.51-5.27,2.54,0,3.98,1.84,3.98,4.69,0,.37-.04.72-.07.96h-6.74c.11,2.14,1.42,3.5,3.31,3.5.98,0,1.77-.29,2.5-.79l.61,1.1c-.88.57-1.95,1.03-3.31,1.03-2.65,0-4.79-1.93-4.79-5.23ZM133.41,93.24c0-2.03-.92-3.11-2.49-3.11-1.42,0-2.67,1.14-2.87,3.11h5.36Z"/>
        <path class="cls-5" d="M137.63,99v-14.62h1.68c0,4.87,0,9.74,0,14.62-.56,0-1.12,0-1.67,0Z"/>
        <path class="cls-5" d="M149.22,85.55h7.79v1.44h-6.08v4.57h5.15v1.44h-5.15v6.06h-1.71v-13.49Z"/>
        <path class="cls-5" d="M158.18,96.45c0-2.17,1.9-3.26,6.15-3.74,0-1.29-.42-2.52-2.06-2.52-1.16,0-2.21.53-3,1.07l-.66-1.16c.92-.59,2.34-1.31,3.94-1.31,2.43,0,3.46,1.64,3.46,4.11v6.15h-1.38l-.15-1.2h-.06c-.96.79-2.08,1.44-3.31,1.44-1.68,0-2.93-1.03-2.93-2.83ZM164.33,96.61v-2.8c-3.37.41-4.51,1.23-4.51,2.52,0,1.14.77,1.6,1.77,1.6s1.77-.46,2.74-1.33Z"/>
        <path class="cls-5" d="M169.46,89.05h1.52c0,.32,0,.65,0,.97.44-.37,1.71-1.3,3.41-1.23.44.02,1.22.04,1.89.57.79.62,1.17,1.76,1.17,3.36v6.33h-1.68v-6.11c0-1.88-.57-2.67-1.9-2.67-1.03,0-1.73.52-2.74,1.53v7.25h-1.68v-10Z"/>
        <path class="cls-5" d="M179.86,97.9l.83-1.1c.87.7,1.77,1.18,2.96,1.18,1.33,0,1.97-.7,1.97-1.56,0-1.01-1.18-1.47-2.28-1.9-1.4-.52-2.98-1.2-2.98-2.89,0-1.58,1.27-2.84,3.44-2.84,1.23,0,2.32.52,3.11,1.12l-.81,1.09c-.7-.52-1.4-.88-2.3-.88-1.25,0-1.82.66-1.82,1.44,0,.96,1.09,1.31,2.21,1.73,1.45.55,3.06,1.14,3.06,3.04,0,1.62-1.29,2.96-3.65,2.96-1.42,0-2.78-.59-3.74-1.38Z"/>
        <path class="cls-5" d="M200.61,94.92h-4.93l-1.31,4.12h-1.73l4.58-13.49h1.9l4.58,13.49h-1.8l-1.29-4.12ZM200.18,93.56l-.64-2.06c-.5-1.53-.92-3-1.36-4.57h-.07c-.42,1.58-.87,3.04-1.34,4.57l-.66,2.06h4.09Z"/>
        <path class="cls-5" d="M205.87,85.55h1.71v13.49h-1.71v-13.49Z"/>
        <path class="cls-5" d="M218.75,86.98h-4.09v-1.44h9.89v1.44h-4.09v12.06h-1.71v-12.06Z"/>
        <path class="cls-5" d="M224.97,94.05c0-3.24,2.19-5.27,4.51-5.27,2.54,0,3.98,1.84,3.98,4.69,0,.37-.04.72-.07.96h-6.74c.11,2.14,1.42,3.5,3.31,3.5.98,0,1.77-.29,2.5-.79l.61,1.1c-.88.57-1.95,1.03-3.31,1.03-2.65,0-4.79-1.93-4.79-5.23ZM231.99,93.24c0-2.03-.92-3.11-2.49-3.11-1.42,0-2.67,1.14-2.87,3.11h5.36Z"/>
        <path class="cls-5" d="M235.44,94.05c0-3.33,2.26-5.27,4.82-5.27,1.31,0,2.21.55,2.93,1.18l-.87,1.12c-.59-.53-1.2-.9-2.01-.9-1.8,0-3.13,1.56-3.13,3.87s1.25,3.83,3.09,3.83c.92,0,1.73-.42,2.36-.99l.72,1.12c-.88.81-2.02,1.27-3.22,1.27-2.65,0-4.69-1.91-4.69-5.23Z"/>
        <path class="cls-5" d="M245.84,84.39h1.68v4.01c-.01.51-.03,1.02-.04,1.53.44-.35,1.65-1.22,3.3-1.14.44.02,1.22.04,1.89.57.79.62,1.17,1.76,1.17,3.36v6.33h-1.68v-6.11c0-1.88-.57-2.67-1.9-2.67-1.03,0-1.73.52-2.74,1.53v7.25h-1.68v-14.65Z"/>
        <path class="cls-5" d="M268.06,94.05c0-3.33,2.19-5.27,4.64-5.27s4.64,1.93,4.64,5.27-2.19,5.23-4.64,5.23-4.64-1.91-4.64-5.23ZM275.61,94.05c0-2.3-1.18-3.87-2.91-3.87s-2.89,1.56-2.89,3.87,1.16,3.83,2.89,3.83,2.91-1.53,2.91-3.83Z"/>
        <path class="cls-5" d="M285.01,94.05c0-3.33,2.19-5.27,4.64-5.27s4.64,1.93,4.64,5.27-2.19,5.23-4.64,5.23-4.64-1.91-4.64-5.23ZM292.56,94.05c0-2.3-1.18-3.87-2.91-3.87s-2.89,1.56-2.89,3.87,1.16,3.83,2.89,3.83,2.91-1.53,2.91-3.83Z"/>
        <path class="cls-5" d="M296.42,100.96c0-.85.55-1.66,1.49-2.26v-.07c-.53-.31-.92-.85-.92-1.64s.61-1.49,1.12-1.86v-.07c-.66-.53-1.31-1.49-1.31-2.69,0-2.19,1.73-3.57,3.76-3.57.55,0,1.05.13,1.4.26h3.48v1.29h-2.04c.48.46.81,1.2.81,2.06,0,2.14-1.62,3.48-3.65,3.48-.5,0-1.05-.13-1.49-.35-.37.31-.64.64-.64,1.2,0,.64.41,1.09,1.75,1.09h1.95c2.32,0,3.48.74,3.48,2.38,0,1.86-1.95,3.46-5.04,3.46-2.45,0-4.14-.96-4.14-2.69ZM303.99,100.44c0-.92-.72-1.23-2.04-1.23h-1.73c-.37,0-.85-.06-1.29-.17-.72.52-1.03,1.1-1.03,1.69,0,1.07,1.09,1.77,2.91,1.77,1.91,0,3.18-1.01,3.18-2.06ZM302.68,92.36c0-1.45-.94-2.34-2.12-2.34s-2.14.87-2.14,2.34.98,2.37,2.14,2.37,2.12-.92,2.12-2.37Z"/>
        <path class="cls-5" d="M308.07,103.34v-1.38s.1,0,.15,0c1.13,0,1.97-1.56,2.26-2.15l.22-.75-4.01-10.02h1.75l2.04,5.56c.29.87.64,1.9.96,2.8h.09c.28-.9.57-1.91.85-2.8l1.79-5.56h1.64l-3.77,10.83c-.52,1.04-1.85,3.43-3.72,3.48-.08,0-.16,0-.24,0Z"/>
        <path class="cls-5" d="M321.78,92.3c0-4.36,2.56-7.01,5.98-7.01,1.64,0,2.93.81,3.7,1.68l-.92,1.1c-.7-.75-1.6-1.29-2.76-1.29-2.56,0-4.25,2.1-4.25,5.47s1.62,5.54,4.2,5.54c1.29,0,2.26-.57,3.13-1.51l.94,1.07c-1.07,1.23-2.39,1.93-4.14,1.93-3.35,0-5.87-2.6-5.87-6.98Z"/>
        <path class="cls-5" d="M333.67,94.05c0-3.33,2.19-5.27,4.64-5.27s4.64,1.93,4.64,5.27-2.19,5.23-4.64,5.23-4.64-1.91-4.64-5.23ZM341.22,94.05c0-2.3-1.18-3.87-2.91-3.87s-2.89,1.56-2.89,3.87,1.16,3.83,2.89,3.83,2.91-1.53,2.91-3.83Z"/>
        <path class="cls-5" d="M345.31,98.01c0-.75.55-1.31,1.21-1.31s1.22.55,1.22,1.31-.55,1.27-1.22,1.27-1.21-.52-1.21-1.27Z"/>
        <path class="cls-5" d="M350.33,101.55c1.14-.5,1.82-1.38,1.84-2.5-.07.02-.13.02-.2.02-.64,0-1.23-.41-1.23-1.18,0-.72.59-1.18,1.27-1.18.88,0,1.42.75,1.42,1.99,0,.19.03.93-.39,1.75-.75,1.5-2.3,2.03-2.7,2.16v-1.06Z"/>
        <path class="cls-5" d="M360.99,85.55h1.71v12.04h5.89v1.45h-7.6v-13.49Z"/>
        <path class="cls-5" d="M370.98,95.95v-5.54h-1.49c0-.45,0-.91,0-1.36h1.5v-2.8c.56,0,1.11,0,1.67,0v2.8h2.71v1.36h-2.71v5.58c0,.75.14,1.3.51,1.62.35.3.8.31,1.03.32.54.02.96-.16,1.16-.26v1.35c-.15.05-.35.11-.59.16-.42.09-.77.12-.93.12-2.14,0-2.85-1.33-2.85-3.33Z"/>
        <path class="cls-5" d="M376.91,94.05c0-3.24,2.04-5.27,4.33-5.27.54,0,1.08.15,1.08.15.82.24,1.37.69,1.64.95v-5.5h1.68v14.65c-.56,0-1.12,0-1.68,0v-1.07c-.25.25-.66.61-1.26.89-.26.12-.86.42-1.67.42-2.5,0-4.12-1.9-4.12-5.23ZM383.96,96.5v-5.25c-.85-.75-1.6-1.05-2.43-1.05-1.62,0-2.89,1.55-2.89,3.83,0,2.41.99,3.85,2.76,3.85.92,0,1.73-.46,2.56-1.38Z"/>
        <path class="cls-5" d="M143.15,99v-14.62h1.68c0,4.87,0,9.74,0,14.62-.56,0-1.12,0-1.67,0Z"/>
        <path class="cls-5" d="M257.29,89.05h1.52c0,.32,0,.65,0,.97.44-.37,1.71-1.3,3.41-1.23.44.02,1.22.04,1.89.57.79.62,1.17,1.76,1.17,3.36v6.33h-1.68v-6.11c0-1.88-.57-2.67-1.9-2.67-1.03,0-1.73.52-2.74,1.53v7.25h-1.68v-10Z"/>
        <path class="cls-5" d="M280.24,99.14v-14.62h1.68c0,4.87,0,9.74,0,14.62-.56,0-1.12,0-1.67,0Z"/>
        <path class="cls-5" d="M388.41,98.01c0-.75.55-1.31,1.21-1.31s1.22.55,1.22,1.31-.55,1.27-1.22,1.27-1.21-.52-1.21-1.27Z"/>
      </g>
    </g>
  </g>
</svg>