<svg width="192" height="170" viewBox="0 0 192 170" fill="none" xmlns="http://www.w3.org/2000/svg">
<g clip-path="url(#clip0_652_3293)">
<path d="M70.4553 166.495C70.4553 166.495 23.8815 163.628 9.46544 138.071C-4.95057 112.521 19.3297 98.4824 28.8167 92.7926C38.3038 87.103 49.6832 82.5512 54.6184 46.8852C59.5537 11.2193 89.1464 7.04474 101.859 8.9434C114.571 10.8421 123.046 22.2215 127.912 30.1933C132.778 38.1589 143.786 50.5254 160.856 63.6903C177.931 76.8615 196.144 108.227 182.106 141.108C168.067 173.989 134.488 168.016 134.488 168.016C134.488 168.016 94.1697 170.732 70.4553 166.495Z" fill="#EDEDED"/>
<path d="M86.1094 56.8752C86.1094 56.8752 88.3853 72.8127 93.1948 80.1433C97.998 87.4802 102.933 82.306 102.933 82.306L103.436 85.7072H101.035C101.035 85.7072 100.274 94.0563 105.209 94.3078C110.144 94.5593 117.859 84.1921 117.859 84.1921C117.859 84.1921 115.834 77.1067 116.211 72.1777C116.211 72.1777 120.009 66.488 117.859 63.7029C115.708 60.9177 112.42 62.4392 112.42 67.5002L110.647 68.0032C110.647 68.0032 110.27 61.5527 109.258 60.4148C108.246 59.2768 103.317 57.2524 103.317 52.8264C103.304 52.8264 93.0628 58.8996 86.1094 56.8752Z" fill="white" stroke="#262626" stroke-miterlimit="10" stroke-linecap="round" stroke-linejoin="round"/>
<path d="M120.507 49.7899C120.004 41.8243 114.943 41.4408 111.655 42.9622C111.655 42.9622 110.007 35.2481 104.318 36.386C98.628 37.524 96.9808 39.2969 94.202 41.95C91.4168 44.6031 86.3621 42.9622 82.9483 44.9866C79.5345 47.011 78.8995 49.2869 76.8751 51.94C74.8507 54.5931 76.3721 57.1268 78.1388 56.6175C78.1388 56.6175 78.3965 64.0487 87.3743 63.6841C86.5256 59.7798 86.1044 56.869 86.1044 56.869C93.0577 58.8934 103.306 52.8202 103.306 52.8202C103.306 57.2462 108.241 59.2706 109.247 60.4086C110.259 61.5465 110.636 67.9969 110.636 67.9969L112.409 67.494C112.409 62.4329 115.697 60.9178 117.847 63.6966C118.294 64.275 118.482 64.9729 118.501 65.721H118.507C118.514 65.7273 121.016 57.7617 120.507 49.7899Z" fill="#262626"/>
<path d="M102.927 82.306L102.77 82.4569C102.87 82.3626 102.927 82.306 102.927 82.306Z" fill="#262626"/>
<path d="M112.288 75.7173C108.365 79.2568 102.852 82.0043 102.852 82.0043L103.505 86.0091C109.447 83.3497 112.288 75.7173 112.288 75.7173Z" fill="#262626"/>
<path d="M91.9503 66.664C92.271 68.1289 91.8497 69.468 91.0136 69.6503C90.1774 69.8326 89.2406 68.789 88.92 67.3241C88.5994 65.8593 89.0206 64.5202 89.8568 64.3378C90.6929 64.1555 91.6297 65.1929 91.9503 66.664Z" fill="#262626"/>
<path d="M100.876 64.7151C101.197 66.18 100.776 67.5191 99.9393 67.7014C99.1032 67.8837 98.1664 66.8401 97.8458 65.3752C97.5251 63.9104 97.9464 62.5713 98.7826 62.3889C99.6187 62.2066 100.555 63.2502 100.876 64.7151Z" fill="#262626"/>
<path d="M87.3746 64.319C87.3495 64.319 87.3306 64.319 87.3055 64.3127C86.9597 64.275 86.7082 63.967 86.7459 63.6212C86.9848 61.3453 88.7075 60.4148 89.5876 60.2388C89.9271 60.1696 90.2603 60.396 90.3232 60.7355C90.3924 61.075 90.1723 61.4019 89.8328 61.471C89.7511 61.4899 88.1919 61.8483 87.997 63.7532C87.9656 64.0801 87.6953 64.319 87.3746 64.319Z" fill="#262626"/>
<path d="M101.855 60.8549C101.71 60.8549 101.566 60.8046 101.446 60.704C99.6606 59.1888 97.1018 60.1067 97.0766 60.1193C96.7497 60.2387 96.3913 60.0753 96.2656 59.7484C96.1461 59.4214 96.3096 59.0631 96.6365 58.9436C96.7686 58.8933 99.9183 57.7617 102.257 59.7484C102.521 59.9747 102.553 60.3708 102.333 60.6348C102.213 60.7794 102.031 60.8549 101.855 60.8549Z" fill="#262626"/>
<path d="M146.058 103.292C143.53 92.6669 137.866 85.33 117.502 84.1921C117.502 84.1921 110.147 93.7923 105.211 93.6414C100.634 93.5031 101.389 85.5501 101.389 85.5501C101.389 85.5501 93.1278 83.3685 86.9666 85.7072C80.7991 88.046 73.305 101.802 73.305 101.802C73.305 101.802 75.0151 137.939 73.6822 144.679C72.3557 151.412 70.457 166.495 70.457 166.495C70.457 166.495 109.914 172.09 134.483 168.01C134.483 168.01 132.27 148.439 131.761 140.724C131.258 133.01 132.138 125.673 132.138 125.673C132.138 125.673 141.751 130.225 143.901 129.213C143.908 129.219 148.585 113.917 146.058 103.292Z" fill="#5D5D5D"/>
<path d="M88.0914 99.5135L73.3359 102.405C73.4554 105.021 73.9206 115.709 74.1092 125.818C84.1181 116.388 88.0914 99.5135 88.0914 99.5135Z" fill="#5D5D5D"/>
<path d="M131.646 132.96L125.434 119.795L125.755 112.018C124.014 117.488 118.506 134.079 118.506 134.079L104.775 138.078C104.775 138.078 118.072 150.589 112.282 157.756C108.874 161.968 101.324 166.187 95.6719 168.94C108.139 169.707 122.945 169.927 134.475 168.01C134.475 168.01 132.262 148.439 131.753 140.725C131.583 137.983 131.577 135.293 131.646 132.96Z" fill="#5D5D5D"/>
<path d="M125.445 119.481L121.905 129.094C121.905 129.094 113.304 123.404 105.465 119.481C97.6248 115.558 89.4014 111.515 86.8741 111.515C84.3467 111.515 77.1984 113.194 76.6326 114.137C76.0605 115.086 77.9591 115.847 79.0028 115.941C80.0464 116.036 82.228 115.564 82.228 115.564C82.228 115.564 81.1843 117.557 80.3293 119.361C79.4743 121.166 81.2787 122.492 81.8445 122.681C81.8445 122.681 83.4539 124.768 84.7868 124.768C84.7868 124.768 87.2513 127.428 89.4328 126.855C91.6144 126.283 89.2442 124.674 89.2442 124.674C89.2442 124.674 90.5708 125.246 92.2808 124.957C93.9909 124.674 95.1288 124.007 95.1288 124.007C95.1288 124.007 111.412 144.019 117.737 147.565C124.061 151.104 126.972 153.129 131.015 151.23C135.064 149.331 142.206 136.424 143.916 129.226C143.909 129.219 132.272 128.71 125.445 119.481Z" fill="white" stroke="#262626" stroke-miterlimit="10" stroke-linecap="round" stroke-linejoin="round"/>
<path d="M125.432 119.795C125.426 119.795 125.42 119.795 125.414 119.795C125.237 119.783 125.105 119.638 125.118 119.462L125.753 109.088C125.766 108.912 125.916 108.774 126.086 108.793C126.262 108.806 126.394 108.95 126.382 109.126L125.747 119.5C125.734 119.663 125.596 119.795 125.432 119.795Z" fill="#262626"/>
<path d="M126.067 116.249C126.023 116.249 125.979 116.243 125.935 116.218C125.778 116.142 125.709 115.96 125.785 115.803L129.45 107.963C129.525 107.806 129.714 107.737 129.871 107.812C130.028 107.888 130.097 108.076 130.022 108.233L126.357 116.073C126.3 116.186 126.187 116.249 126.067 116.249Z" fill="#262626"/>
<path d="M144.43 126.327C135.383 126.327 127.065 117.884 126.983 117.802C126.864 117.676 126.864 117.482 126.99 117.356C127.115 117.236 127.317 117.236 127.436 117.362C127.518 117.444 135.879 125.906 144.75 125.699C144.926 125.699 145.071 125.831 145.071 126.007C145.077 126.183 144.939 126.321 144.763 126.327C144.65 126.327 144.537 126.327 144.43 126.327Z" fill="#262626"/>
<path d="M81.8424 122.989C81.8047 122.989 81.7732 122.983 81.7355 122.97C81.572 122.914 81.484 122.731 81.5406 122.568C81.5909 122.436 82.71 119.286 84.1308 117.004C84.2251 116.853 84.42 116.815 84.5646 116.903C84.7092 116.997 84.7595 117.192 84.6652 117.337C83.2758 119.556 82.1442 122.744 82.1316 122.775C82.0939 122.907 81.9681 122.989 81.8424 122.989Z" fill="#262626"/>
<path d="M84.777 125.076C84.7518 125.076 84.7267 125.076 84.7015 125.07C84.5318 125.026 84.4312 124.856 84.4752 124.686C84.5066 124.561 85.2611 121.574 86.5122 119.745C86.6128 119.6 86.8076 119.569 86.9522 119.663C87.0968 119.764 87.1346 119.959 87.034 120.103C85.8457 121.838 85.0976 124.812 85.085 124.837C85.0473 124.976 84.9216 125.076 84.777 125.076Z" fill="#262626"/>
<path d="M92.9689 158.944C92.5791 158.944 92.3653 158.938 92.3528 158.938C92.1767 158.932 92.0447 158.787 92.051 158.611C92.0573 158.441 92.1956 158.309 92.3653 158.309C92.3716 158.309 92.3716 158.309 92.3779 158.309C92.5288 158.315 107.096 158.724 113.188 151.746C113.301 151.614 113.502 151.601 113.634 151.714C113.766 151.827 113.779 152.028 113.666 152.16C110.371 155.939 104.744 157.58 100.608 158.29C97.2 158.875 94.2137 158.944 92.9689 158.944Z" fill="#262626"/>
<path d="M99.3581 153.053C99.1947 153.053 99.0564 152.927 99.0438 152.764C99.0312 152.588 99.1633 152.437 99.333 152.425C99.4085 152.418 106.94 151.84 110.052 150.004C110.197 149.916 110.392 149.966 110.48 150.117C110.568 150.268 110.518 150.457 110.367 150.545C107.129 152.456 99.6914 153.028 99.377 153.053C99.3707 153.053 99.3644 153.053 99.3581 153.053Z" fill="#262626"/>
<path d="M78.3272 145.534C78.3272 145.534 74.2784 145.66 70.9903 144.145C67.7023 142.629 65.9922 140.102 65.9922 140.102L74.1401 138.078L84.5828 139.725C84.5828 139.719 84.2118 144.459 78.3272 145.534Z" fill="white" stroke="#262626" stroke-miterlimit="10" stroke-linecap="round" stroke-linejoin="round"/>
<path d="M93.4406 141.108L48.5454 134.079L38.4297 94.3141L81.816 99.6203L93.4406 141.108Z" fill="#262626"/>
<path d="M81.8164 99.6203L83.1178 100.004L93.9817 138.071L105.619 136.192L107.8 138.562L93.441 141.108L81.8164 99.6203Z" fill="white"/>
<path d="M105.613 136.192L93.9763 138.071L92.832 134.079L105.613 136.192Z" fill="#EDEDED"/>
<path d="M85.4331 108.409C85.4017 108.409 85.3639 108.403 85.3325 108.391C85.169 108.334 85.081 108.158 85.1313 107.994C85.1439 107.95 86.5899 103.644 88.0925 99.5134C88.149 99.3499 88.3314 99.2682 88.4948 99.3248C88.6583 99.3813 88.74 99.5637 88.6834 99.7271C87.1871 103.851 85.7474 108.152 85.7286 108.196C85.6846 108.328 85.5588 108.409 85.4331 108.409Z" fill="#262626"/>
<path d="M86.0956 105.819C85.9196 105.819 85.7812 105.681 85.7812 105.505V99.6266C85.7812 99.4506 85.9196 99.3123 86.0956 99.3123C86.2716 99.3123 86.4099 99.4506 86.4099 99.6266V105.505C86.4099 105.675 86.2716 105.819 86.0956 105.819Z" fill="#262626"/>
<path d="M70.9077 42.1826C82.418 42.1826 91.749 32.8516 91.749 21.3413C91.749 9.83097 82.418 0.5 70.9077 0.5C59.3974 0.5 50.0664 9.83097 50.0664 21.3413C50.0664 32.8516 59.3974 42.1826 70.9077 42.1826Z" fill="#262626"/>
<path d="M148.377 68.2735C161.762 68.2735 172.613 57.4225 172.613 44.0372C172.613 30.6519 161.762 19.801 148.377 19.801C134.992 19.801 124.141 30.6519 124.141 44.0372C124.141 57.4225 134.992 68.2735 148.377 68.2735Z" fill="#5D5D5D"/>
<path d="M42.0913 88.8444C53.6016 88.8444 62.9326 79.5135 62.9326 68.0032C62.9326 56.4928 53.6016 47.1619 42.0913 47.1619C30.581 47.1619 21.25 56.4928 21.25 68.0032C21.25 79.5135 30.581 88.8444 42.0913 88.8444Z" fill="#5D5D5D"/>
<path d="M42.7524 35.85C45.4958 34.7066 46.7928 31.5558 45.6494 28.8125C44.506 26.0691 41.3551 24.7721 38.6118 25.9155C35.8684 27.0589 34.5714 30.2098 35.7148 32.9531C36.8583 35.6964 40.0091 36.9934 42.7524 35.85Z" fill="#5D5D5D"/>
<path d="M22.3072 82.4569C22.3072 83.4188 21.5276 84.1983 20.5657 84.1983C19.6038 84.1983 18.8242 83.4188 18.8242 82.4569C18.8242 81.495 19.6038 80.7154 20.5657 80.7154C21.5276 80.7154 22.3072 81.495 22.3072 82.4569Z" fill="#262626"/>
<path d="M134.417 18.0469C136.233 18.0469 137.705 16.5748 137.705 14.7589C137.705 12.9429 136.233 11.4708 134.417 11.4708C132.601 11.4708 131.129 12.9429 131.129 14.7589C131.129 16.5748 132.601 18.0469 134.417 18.0469Z" fill="#5D5D5D"/>
<path d="M176.608 70.8826C179.376 70.8826 181.619 68.6392 181.619 65.8718C181.619 63.1045 179.376 60.8611 176.608 60.8611C173.841 60.8611 171.598 63.1045 171.598 65.8718C171.598 68.6392 173.841 70.8826 176.608 70.8826Z" fill="#262626"/>
<path d="M175.992 53.8261C175.992 54.7565 175.237 55.5172 174.301 55.5172C173.364 55.5172 172.609 54.7628 172.609 53.8261C172.609 52.8893 173.364 52.1349 174.301 52.1349C175.237 52.1349 175.992 52.8956 175.992 53.8261Z" fill="#5D5D5D"/>
<path d="M63.3203 18.0469V30.5706H79.2578V18.0469H63.3203ZM72.757 27.7226H69.1986L70.1668 25.321C69.3244 24.9815 68.7271 24.1579 68.7271 23.1897C68.7271 21.9197 69.7582 20.8886 71.0281 20.8886C72.2981 20.8886 73.3292 21.9197 73.3292 23.1897C73.3292 24.1704 72.713 25.0003 71.8454 25.3335L72.757 27.7226Z" fill="white"/>
<path d="M66.294 18.9899C66.2563 18.9899 66.2186 18.9899 66.1871 18.9837C65.6716 18.9271 65.3007 18.4555 65.3573 17.94C65.3887 17.6445 66.25 10.6786 70.9967 10.5277C71.047 10.5277 71.0973 10.5277 71.1476 10.5277C75.8188 10.5277 76.7429 17.6319 76.7807 17.9337C76.8435 18.4493 76.4789 18.9208 75.9571 18.9837C75.4478 19.0528 74.97 18.6819 74.9072 18.1663C74.9009 18.1098 74.0962 12.3446 71.0595 12.4138C67.9664 12.5144 67.2371 18.0972 67.2308 18.1538C67.1742 18.6379 66.7655 18.9899 66.294 18.9899Z" fill="white"/>
<path d="M53.8562 60.8612H29.9531V76.2265H53.8562V60.8612Z" fill="#EDEDED"/>
<path d="M29.9531 60.8612L53.8562 76.2265V60.8612H29.9531Z" fill="white"/>
<path d="M44.9332 67.6071H31.8438V68.5376H44.9332V67.6071Z" fill="#5D5D5D"/>
<path d="M44.9332 69.6001H31.8438V70.5305H44.9332V69.6001Z" fill="#5D5D5D"/>
<path d="M35.3079 72.3977H31.8438V73.5356H35.3079V72.3977Z" fill="#5D5D5D"/>
<path d="M40.4329 72.3977H36.9688V73.5356H40.4329V72.3977Z" fill="#5D5D5D"/>
<path d="M51.8649 71.1656H47.0742V73.8689H51.8649V71.1656Z" fill="#5D5D5D"/>
<path d="M159.62 40.2462H137.138C135.042 40.2462 133.344 41.9449 133.344 44.0403C133.344 46.1358 135.042 47.8345 137.138 47.8345H159.62C161.716 47.8345 163.414 46.1358 163.414 44.0403C163.414 41.9449 161.716 40.2462 159.62 40.2462Z" fill="#262626"/>
<path d="M96.5661 75.164C95.994 75.164 95.2396 75.0697 94.8058 74.6296C94.6172 74.4347 94.4097 74.0826 94.504 73.5168C94.7806 71.9262 94.504 65.941 94.4977 65.8844C94.4914 65.7084 94.6234 65.5638 94.7995 65.5575C94.9755 65.5386 95.1201 65.6832 95.1264 65.8593C95.139 66.1107 95.4093 71.9765 95.1201 73.6299C95.0635 73.9569 95.1704 74.1078 95.2521 74.1958C95.6671 74.617 96.8365 74.5541 97.2137 74.4975C97.3834 74.4724 97.5469 74.5918 97.572 74.7616C97.5972 74.9313 97.4777 75.0948 97.308 75.12C97.2388 75.1262 96.9433 75.164 96.5661 75.164Z" fill="#262626"/>
<path d="M98.2379 78.3641C98.0996 78.3641 97.9739 78.2698 97.9361 78.1315C97.8921 77.9617 97.9927 77.792 98.1562 77.748C98.2002 77.7354 102.746 76.478 103.638 73.4477C103.689 73.2842 103.858 73.1836 104.028 73.2339C104.192 73.2842 104.292 73.4603 104.242 73.6237C103.249 76.9935 98.5208 78.3012 98.3196 78.3515C98.2882 78.3641 98.263 78.3641 98.2379 78.3641Z" fill="#262626"/>
<path d="M60.3109 134.846C60.3109 134.846 66.3212 141.359 69.8607 142.309C73.4003 143.258 80.2971 137.883 81.3722 136.43C82.4473 134.978 81.3722 134.72 80.4857 134.852C79.5993 134.978 77.512 136.625 77.512 136.625C77.512 136.625 81.5608 130.301 80.4857 129.288C79.4107 128.276 74.1862 135.487 74.1862 135.487C74.1862 135.487 74.6703 126.378 73.5952 126.315C72.5201 126.252 69.9299 134.368 69.9299 134.368C69.9299 134.368 66.579 125.743 65.0638 125.743C63.5486 125.743 65.8874 134.406 65.8874 134.406C65.8874 134.406 60.0091 131.816 58.8711 132.067C57.7143 132.312 60.3109 134.846 60.3109 134.846Z" fill="white" stroke="#262626" stroke-miterlimit="10" stroke-linecap="round" stroke-linejoin="round"/>
<path d="M106.016 68.8708C106.173 69.5812 105.368 70.3608 104.23 70.606C103.086 70.8575 102.036 70.4802 101.879 69.7698C101.722 69.0594 102.527 68.2798 103.664 68.0346C104.809 67.7831 105.859 68.1603 106.016 68.8708Z" fill="#E59C98"/>
<path d="M92.7865 72.6555C92.6293 71.9451 91.5794 71.5742 90.4352 71.8194C90.2403 71.8634 90.0643 71.9262 89.8945 71.9954C90.1649 72.819 90.4478 73.6363 90.7495 74.4347C90.8313 74.4222 90.913 74.4159 90.9948 74.397C92.1453 74.1393 92.9437 73.3597 92.7865 72.6555Z" fill="#E59C98"/>
<path d="M67.1453 115.941C67.8243 119.047 66.4915 121.977 64.1716 122.48C61.8517 122.989 59.4186 120.877 58.7396 117.771C58.0607 114.665 59.3935 111.735 61.7134 111.232C64.0333 110.729 66.4663 112.836 67.1453 115.941Z" fill="white"/>
<path d="M137.412 43.6098L138.066 43.2263C138.078 43.2138 138.091 43.2075 138.097 43.2075C138.103 43.2075 138.11 43.2012 138.116 43.1949C138.154 43.1823 138.198 43.1886 138.242 43.2075C138.286 43.2263 138.311 43.2578 138.33 43.308L138.468 43.7356C138.48 43.7733 138.48 43.8173 138.455 43.8613C138.43 43.9053 138.399 43.9305 138.361 43.943C138.355 43.9493 138.336 43.9556 138.298 43.9556L137.544 44.0311L138.11 44.5277C138.122 44.5403 138.135 44.5466 138.141 44.5529C138.147 44.5592 138.154 44.5654 138.154 44.5717C138.179 44.6032 138.191 44.6409 138.185 44.6912C138.179 44.7415 138.16 44.7792 138.116 44.8043L137.745 45.0684C137.707 45.0935 137.669 45.0998 137.625 45.0936C137.581 45.081 137.544 45.0621 137.519 45.0307L137.487 44.9804L137.185 44.3014L136.884 44.9804L136.852 45.0307C136.827 45.0621 136.789 45.081 136.745 45.0936C136.701 45.1061 136.657 45.0935 136.626 45.0684L136.255 44.8043C136.217 44.7792 136.192 44.7415 136.186 44.6912C136.179 44.6409 136.192 44.6032 136.217 44.5717C136.223 44.5654 136.23 44.5592 136.23 44.5529C136.236 44.5466 136.242 44.534 136.261 44.5277L136.821 44.0311L136.073 43.9556C136.035 43.9493 136.01 43.943 136.01 43.943C135.972 43.9305 135.941 43.9053 135.915 43.8613C135.89 43.8173 135.89 43.7796 135.903 43.7356L136.041 43.308C136.054 43.264 136.085 43.2326 136.129 43.2075C136.173 43.1886 136.211 43.1823 136.255 43.1949C136.261 43.2012 136.267 43.2012 136.274 43.2075C136.28 43.2075 136.293 43.2138 136.305 43.2263L136.953 43.6098L136.796 42.868C136.789 42.8428 136.789 42.824 136.789 42.8051C136.789 42.7674 136.808 42.7297 136.84 42.6919C136.871 42.6542 136.909 42.6416 136.959 42.6416H137.412C137.456 42.6416 137.493 42.6605 137.531 42.6919C137.563 42.7297 137.581 42.7674 137.581 42.8051C137.581 42.8177 137.581 42.8428 137.575 42.868L137.412 43.6098Z" fill="white"/>
<path d="M142.607 43.6098L143.261 43.2263C143.273 43.2137 143.286 43.2074 143.292 43.2074C143.299 43.2074 143.305 43.2011 143.311 43.1948C143.349 43.1823 143.393 43.1885 143.437 43.2074C143.481 43.2263 143.506 43.2577 143.525 43.308L143.663 43.7355C143.676 43.7732 143.676 43.8172 143.651 43.8612C143.625 43.9053 143.594 43.9304 143.556 43.943C143.55 43.9493 143.531 43.9555 143.493 43.9555L142.739 44.031L143.305 44.5277C143.317 44.5402 143.33 44.5465 143.336 44.5528C143.343 44.5591 143.349 44.5654 143.349 44.5717C143.374 44.6031 143.387 44.6408 143.38 44.6911C143.374 44.7414 143.355 44.7791 143.311 44.8043L142.94 45.0683C142.902 45.0935 142.865 45.0998 142.821 45.0935C142.777 45.0809 142.739 45.0621 142.714 45.0306L142.682 44.9803L142.381 44.3013L142.079 44.9803L142.047 45.0306C142.022 45.0621 141.985 45.0809 141.941 45.0935C141.897 45.1061 141.853 45.0935 141.821 45.0683L141.45 44.8043C141.412 44.7791 141.387 44.7414 141.381 44.6911C141.375 44.6408 141.387 44.6031 141.412 44.5717C141.419 44.5654 141.425 44.5591 141.425 44.5528C141.431 44.5465 141.438 44.5339 141.456 44.5277L142.016 44.031L141.268 43.9555C141.23 43.9493 141.205 43.943 141.205 43.943C141.167 43.9304 141.136 43.9053 141.111 43.8612C141.086 43.8172 141.086 43.7795 141.098 43.7355L141.236 43.308C141.249 43.264 141.28 43.2326 141.324 43.2074C141.368 43.1885 141.406 43.1823 141.45 43.1948C141.456 43.2011 141.463 43.2011 141.469 43.2074C141.475 43.2074 141.488 43.2137 141.5 43.2263L142.148 43.6098L141.991 42.8679C141.985 42.8428 141.985 42.8239 141.985 42.805C141.985 42.7673 142.003 42.7296 142.035 42.6919C142.066 42.6541 142.104 42.6416 142.154 42.6416H142.607C142.651 42.6416 142.689 42.6604 142.726 42.6919C142.758 42.7296 142.777 42.7673 142.777 42.805C142.777 42.8176 142.777 42.8428 142.77 42.8679L142.607 43.6098Z" fill="white"/>
<path d="M147.787 43.6098L148.441 43.2263C148.453 43.2137 148.466 43.2074 148.472 43.2074C148.478 43.2074 148.484 43.2011 148.491 43.1948C148.529 43.1823 148.573 43.1885 148.617 43.2074C148.661 43.2263 148.686 43.2577 148.705 43.308L148.843 43.7355C148.855 43.7732 148.855 43.8172 148.83 43.8612C148.805 43.9053 148.774 43.9304 148.736 43.943C148.73 43.9493 148.711 43.9555 148.673 43.9555L147.919 44.031L148.485 44.5277C148.497 44.5402 148.51 44.5465 148.516 44.5528C148.522 44.5591 148.529 44.5654 148.529 44.5717C148.554 44.6031 148.566 44.6408 148.56 44.6911C148.554 44.7414 148.535 44.7791 148.491 44.8043L148.12 45.0683C148.082 45.0935 148.044 45.0998 148 45.0935C147.956 45.0809 147.919 45.0621 147.894 45.0306L147.862 44.9803L147.56 44.3013L147.259 44.9803L147.227 45.0306C147.202 45.0621 147.164 45.0809 147.12 45.0935C147.076 45.1061 147.032 45.0935 147.001 45.0683L146.63 44.8043C146.592 44.7791 146.567 44.7414 146.561 44.6911C146.554 44.6408 146.567 44.6031 146.592 44.5717C146.598 44.5654 146.605 44.5591 146.605 44.5528C146.611 44.5465 146.617 44.5339 146.636 44.5277L147.196 44.031L146.448 43.9555C146.41 43.9493 146.385 43.943 146.385 43.943C146.347 43.9304 146.315 43.9053 146.29 43.8612C146.265 43.8172 146.265 43.7795 146.278 43.7355L146.416 43.308C146.429 43.264 146.46 43.2326 146.504 43.2074C146.548 43.1885 146.586 43.1823 146.63 43.1948C146.636 43.2011 146.642 43.2011 146.649 43.2074C146.655 43.2074 146.668 43.2137 146.68 43.2263L147.328 43.6098L147.171 42.8679C147.164 42.8428 147.164 42.8239 147.164 42.805C147.164 42.7673 147.183 42.7296 147.215 42.6919C147.246 42.6541 147.284 42.6416 147.334 42.6416H147.787C147.831 42.6416 147.868 42.6604 147.906 42.6919C147.938 42.7296 147.956 42.7673 147.956 42.805C147.956 42.8176 147.956 42.8428 147.95 42.8679L147.787 43.6098Z" fill="white"/>
<path d="M152.982 43.6098L153.636 43.2263C153.648 43.2137 153.661 43.2074 153.667 43.2074C153.674 43.2074 153.68 43.2011 153.686 43.1948C153.724 43.1823 153.768 43.1885 153.812 43.2074C153.856 43.2263 153.881 43.2577 153.9 43.308L154.038 43.7355C154.051 43.7732 154.051 43.8172 154.026 43.8612C154 43.9053 153.969 43.9304 153.931 43.943C153.925 43.9493 153.906 43.9555 153.868 43.9555L153.114 44.031L153.68 44.5277C153.692 44.5402 153.705 44.5465 153.711 44.5528C153.718 44.5591 153.724 44.5654 153.724 44.5717C153.749 44.6031 153.762 44.6408 153.755 44.6911C153.749 44.7414 153.73 44.7791 153.686 44.8043L153.315 45.0683C153.277 45.0935 153.24 45.0998 153.196 45.0935C153.152 45.0809 153.114 45.0621 153.089 45.0306L153.057 44.9803L152.756 44.3013L152.454 44.9803L152.422 45.0306C152.397 45.0621 152.36 45.0809 152.316 45.0935C152.272 45.1061 152.228 45.0935 152.196 45.0683L151.825 44.8043C151.787 44.7791 151.762 44.7414 151.756 44.6911C151.75 44.6408 151.762 44.6031 151.787 44.5717C151.794 44.5654 151.8 44.5591 151.8 44.5528C151.806 44.5465 151.813 44.5339 151.831 44.5277L152.391 44.031L151.643 43.9555C151.605 43.9493 151.58 43.943 151.58 43.943C151.542 43.9304 151.511 43.9053 151.486 43.8612C151.461 43.8172 151.461 43.7795 151.473 43.7355L151.611 43.308C151.624 43.264 151.655 43.2326 151.699 43.2074C151.743 43.1885 151.781 43.1823 151.825 43.1948C151.831 43.2011 151.838 43.2011 151.844 43.2074C151.85 43.2074 151.863 43.2137 151.875 43.2263L152.523 43.6098L152.366 42.8679C152.36 42.8428 152.36 42.8239 152.36 42.805C152.36 42.7673 152.378 42.7296 152.41 42.6919C152.441 42.6541 152.479 42.6416 152.529 42.6416H152.982C153.026 42.6416 153.064 42.6604 153.101 42.6919C153.133 42.7296 153.152 42.7673 153.152 42.805C153.152 42.8176 153.152 42.8428 153.145 42.8679L152.982 43.6098Z" fill="white"/>
<path d="M158.169 43.6098L158.823 43.2263C158.836 43.2137 158.848 43.2074 158.855 43.2074C158.861 43.2074 158.867 43.2011 158.874 43.1948C158.911 43.1823 158.955 43.1885 158.999 43.2074C159.043 43.2263 159.069 43.2577 159.087 43.308L159.226 43.7355C159.238 43.7732 159.238 43.8172 159.213 43.8612C159.188 43.9053 159.157 43.9304 159.119 43.943C159.113 43.9493 159.094 43.9555 159.056 43.9555L158.302 44.031L158.867 44.5277C158.88 44.5402 158.892 44.5465 158.899 44.5528C158.905 44.5591 158.911 44.5654 158.911 44.5717C158.936 44.6031 158.949 44.6408 158.943 44.6911C158.936 44.7414 158.918 44.7791 158.874 44.8043L158.503 45.0683C158.465 45.0935 158.427 45.0998 158.383 45.0935C158.339 45.0809 158.301 45.0621 158.276 45.0306L158.245 44.9803L157.943 44.3013L157.641 44.9803L157.61 45.0306C157.585 45.0621 157.547 45.0809 157.503 45.0935C157.459 45.1061 157.415 45.0935 157.384 45.0683L157.013 44.8043C156.975 44.7791 156.95 44.7414 156.943 44.6911C156.937 44.6408 156.95 44.6031 156.975 44.5717C156.981 44.5654 156.988 44.5591 156.988 44.5528C156.994 44.5465 157 44.5339 157.019 44.5277L157.578 44.031L156.83 43.9555C156.793 43.9493 156.767 43.943 156.767 43.943C156.73 43.9304 156.698 43.9053 156.673 43.8612C156.648 43.8172 156.648 43.7795 156.661 43.7355L156.799 43.308C156.811 43.264 156.843 43.2326 156.887 43.2074C156.931 43.1885 156.969 43.1823 157.013 43.1948C157.019 43.2011 157.025 43.2011 157.032 43.2074C157.038 43.2074 157.05 43.2137 157.063 43.2263L157.711 43.6098L157.553 42.8679C157.547 42.8428 157.547 42.8239 157.547 42.805C157.547 42.7673 157.566 42.7296 157.597 42.6919C157.629 42.6541 157.667 42.6416 157.717 42.6416H158.169C158.213 42.6416 158.251 42.6604 158.289 42.6919C158.32 42.7296 158.339 42.7673 158.339 42.805C158.339 42.8176 158.339 42.8428 158.333 42.8679L158.169 43.6098Z" fill="white"/>
</g>
<defs>
<clipPath id="clip0_652_3293">
<rect width="192" height="169" fill="white" transform="translate(0 0.5)"/>
</clipPath>
</defs>
</svg>
