<?xml version="1.0" encoding="UTF-8"?>
<svg id="_圖層_1" data-name="圖層_1" xmlns="http://www.w3.org/2000/svg" version="1.1" viewBox="0 0 24 24">
  <!-- Generator: Adobe Illustrator 30.0.0, SVG Export Plug-In . SVG Version: 2.1.1 Build 123)  -->
  <defs>
    <style>
      .st0 {
        fill: #78d2c8;
      }
    </style>
  </defs>
  <path class="st0" d="M8.38,2.48c.53-.16,1.09-.13,1.6.07.51.21.93.58,1.2,1.06l.09.18.79,1.77c.24.54.32,1.13.22,1.71-.09.58-.36,1.12-.75,1.55l-.16.16-1.25,1.17c-.23.21-.06,1.04.76,2.45.73,1.27,1.33,1.87,1.63,1.9h.12s2.46-.76,2.46-.76c.33-.1.68-.11,1.02-.01.33.09.63.28.86.54l.11.14,1.63,2.26c.32.44.48.98.45,1.52-.03.54-.24,1.06-.6,1.47l-.15.15-.65.62c-.58.55-1.31.93-2.1,1.08-.79.15-1.61.07-2.35-.23-2.32-.94-4.43-3.07-6.35-6.39-1.92-3.33-2.72-6.23-2.36-8.71.11-.75.42-1.46.89-2.05.48-.59,1.11-1.04,1.82-1.3l.23-.08.86-.26Z"/>
</svg>