<?xml version="1.0" encoding="UTF-8"?>
<svg id="_圖層_1" data-name="圖層_1" xmlns="http://www.w3.org/2000/svg" version="1.1" viewBox="0 0 72 72">
  <!-- Generator: Adobe Illustrator 29.8.3, SVG Export Plug-In . SVG Version: 2.1.1 Build 3)  -->
  <defs>
    <style>
      .st0 {
        fill: #f2f2f2;
      }

      .st1 {
        fill: #7d7d7d;
        isolation: isolate;
        opacity: .35;
      }

      .st2 {
        fill: #a8a8a8;
      }
    </style>
  </defs>
  <rect class="st0" width="72" height="72"/>
  <path class="st2" d="M44.67,51.98l-9.49-9.49,9.9-9.9,3.92,16.99c.2.86-.06,1.77-.69,2.4-1.01,1.01-2.63,1.01-3.64,0Z"/>
  <path class="st2" d="M29.09,53.37l-2.4-2.4,5.66-5.66,1.14,5.7c.17.85-.1,1.74-.71,2.35-1.02,1.02-2.67,1.02-3.69,0Z"/>
  <path class="st2" d="M20.02,27.33l9.49,9.49,9.9-9.9-16.99-3.92c-.86-.2-1.77.06-2.4.69-1.01,1.01-1.01,2.63,0,3.64Z"/>
  <path class="st2" d="M18.63,42.91l2.4,2.4,5.66-5.66-5.7-1.14c-.85-.17-1.74.1-2.35.71-1.02,1.02-1.02,2.67,0,3.69Z"/>
  <path class="st1" d="M52.14,25.51c1.56-1.56,1.56-4.09,0-5.66-1.56-1.56-4.09-1.56-5.66,0-.85.85-25.46,25.46-25.46,25.46l5.66,5.66s24.61-24.61,25.46-25.46Z"/>
</svg>