<svg width="18" height="19" viewBox="0 0 18 19" fill="none" xmlns="http://www.w3.org/2000/svg">
<path d="M10.0312 1.84375L10.0312 8.71875H16.9062C17.4648 8.71875 17.9375 9.19141 17.9375 9.75C17.9375 10.3516 17.4648 10.7813 16.9062 10.7813H10.0312L10.0312 17.6562C10.0312 18.2578 9.55859 18.6875 9 18.6875C8.39844 18.6875 7.96875 18.2578 7.96875 17.6562L7.96875 10.7813L1.09375 10.7812C0.492187 10.7812 0.0625 10.3516 0.0625 9.75C0.0625 9.19141 0.492187 8.71875 1.09375 8.71875L7.96875 8.71875L7.96875 1.84375C7.96875 1.28516 8.39844 0.8125 9 0.8125C9.55859 0.8125 10.0312 1.28516 10.0312 1.84375Z" fill="#101011"/>
</svg>
