<?xml version="1.0" encoding="UTF-8"?>
<svg id="_圖層_1" data-name="圖層_1" xmlns="http://www.w3.org/2000/svg" version="1.1" viewBox="0 0 72 72">
  <!-- Generator: Adobe Illustrator 29.8.3, SVG Export Plug-In . SVG Version: 2.1.1 Build 3)  -->
  <defs>
    <style>
      .st0 {
        fill: #f2f2f2;
      }

      .st1 {
        fill: #adadad;
        isolation: isolate;
        opacity: .35;
      }

      .st2 {
        fill: #a8a8a8;
      }
    </style>
  </defs>
  <rect class="st0" width="72" height="72"/>
  <path class="st1" d="M41.03,42l10.56-10.56c1.54-1.54,2.41-3.64,2.41-5.82v-3.51c0-2.27-1.84-4.11-4.11-4.11h-3.51c-2.18,0-4.27.87-5.82,2.41l-10.56,10.56-7.08-1.01c-2.24-.32-4.5.84-5.5,3.05-.91,2.01-.3,4.39,1.26,5.95l14.37,14.37c1.56,1.56,3.94,2.17,5.95,1.26,2.21-1,3.37-3.26,3.05-5.5l-1.01-7.08Z"/>
  <path class="st2" d="M44.75,30.34c1.7,0,3.08-1.38,3.08-3.08s-1.38-3.08-3.08-3.08-3.08,1.38-3.08,3.08,1.38,3.08,3.08,3.08Z"/>
  <path class="st2" d="M36.52,38.56c1.7,0,3.08-1.38,3.08-3.08s-1.38-3.08-3.08-3.08-3.08,1.38-3.08,3.08,1.38,3.08,3.08,3.08Z"/>
  <path class="st2" d="M21.57,41.84c-.25.18-.5.36-.72.59-1.47,1.47-2.68,5.94-3.4,9.2-.39,1.75,1.18,3.31,2.93,2.93,3.25-.72,7.72-1.93,9.2-3.4.22-.22.41-.47.59-.72l-8.59-8.59Z"/>
</svg>